<?xml version="1.0" encoding="UTF-8"?>
<svg version="1.1" viewBox="0 0 1200 1200" width="1280" height="1280" xmlns="http://www.w3.org/2000/svg">
<path transform="translate(85,264)" d="m0 0 13 1 729 1h49l36 1h33l5 1h19l78-1 6 3 7 8 18 6 13 7 9 7 7 8 11 18 4 10 8 29 1 5 1 92 2 16 1 31v58l-1 3-1 53-2 12-9 25-3 12-7 9-12 12-11 9-9 8-19 12-11 6-4 2-8 1-73 1-55 3-7 2-1 5 2 5 10 8 14 13 8 7 13 12 7 7 11 9 47 47 9 11 11 12 23 23 13 10 10 10 8 7 7 8 15 15 7 12-1 5-3 1h-96l-5-2-6-7-8-7-25-25-8-7-13-11-10-9-16-12-15-14-13-13v-2h-2l-5-5-14-15-8-7-14-14-8-7-20-20-7-8-12-12-10-13-8-7v-2h-2l-5-5-9-7-3-1-17-1-68-1h-138l-200 1-24 1-15 2-9 4-3 5-2 10v13l2 61 1 35v33l-1 36-1 14-3 7-2 1-2 5-2 1-6-4-12-11-31-31-7-8-8-9-4-9-2-11-2-21v-95l1-60v-38l5-6 9-2h63l187 1 73 1h23l3-1h156l101-1 61 1 63-1 36-2 11-3 10-5 15-11 4-7 7-21 2-8 1-24v-145l-1-28-5-16-7-14-9-11-13-10-8-3-6-1-16-1-116-1h-427l-101 1-143 1h-94l-34-2-3-1-1-2v-41l1-21 7-6 12-5z" fill="#56B0D7"/>
<path transform="translate(81,418)" d="m0 0h19l2 1 34 1h60l7-1h82 4l2 1h180l8-2 1 3h87l10 3 8 5 12 11 7 6 7 8 14 15 7 8 47 47 17 13 16 10 6 7 3 6v8l-5 5-3 1-58 2h-26l-9-2-8-6-12-11-10-10-6-7-10-8-6-5-17-17-2-1v-2l-12-6-7-1-40-1-19-1h-85l-202 1-23 1-17 3-2 5-1 6-2 77v69l2 62v12l-2 26-1 28-4 8-4 1-10-4-12-11-6-8-15-14-3-3v-2h-2l-5-5-12-13-2-2-1-6v-300l2-8 6-2z" fill="#56B0D7"/>
<path transform="translate(85,264)" d="m0 0 13 1 729 1h49l36 1h33l5 1h19l78-1 6 3 7 8 18 6 13 7 9 7 7 8 11 18 4 10 8 29 1 5 1 92 2 16 1 31v58l-1 3-1 53-2 12-7 19h-1v-6l4-9 2-17v-33l2-59-1-56-1-9-1-90-2-13-4-13-1 1v2h-2v-2l-3 1-3-4v-2l-8 6-3 1h-7l-5-1v-2h-7l-7-2h-25l-12-2-13-4-5-3-10-2-4-1-24-4h-9l-9-1h-11l-12-1-27-9-21-2-13-3-18-1-4-1h-12l-19-2-10-3-10-4-9-1-4-2h-16l-11 1h-11l-11-1-6-2-10-2-12-5-12-4-13-2-6-2-19-2-7-1-1-1h-8l-9-2-16-3-3-2-27-2h-27l-93-1h-394l-1 2-8 1-4 3h-2l-1 5-2 2-1 10h-1v-15l7-6 12-5z" fill="#69CCEF"/>
<path transform="translate(549,720)" d="m0 0h74l30 2 18 1 50 1h10l7 1 2-1 17 1 4 1 1-2 9 1 9 2 5 2 7 7v2l4 2 6 7 5 4 2 5 3 1 2 5h2l5 5 4 5 6 5v2h2l6 7 5 5 2 4h2l5 5 2 3 2 1 5 5 1 2h2v2l4 1 7 6 5 5 5 4 2 4 6 4 5 5 7 8 2 6h2l1 4-2 1 4 3v2h2v2l3 1 4 4 3-2 1 2 3 1 1 2 5 3 7 5 5 5 5 4 9 6 9 9 3 1 1 2 7 4 5 6 4 3v2l4 2 7 6 1 2 6 2v2h2v2l8 1 3 2 16-1 19 1 10 3 4 3 13 3h10v-4l-6-11-5-5v-2h-2l-3-7-12-9-9-3-3-8-6-8-3-5-6-7-4-4-7-8-7-5-2-5-7-6-4-4-1-6h-2l-1-2-5-3-5-5-7-8-2-2-4-3 3-2-2-2-6-8-7-6-3-1-7-8-2-1v-2l-3-1-4-4v-2l-4-2-5-5-3-2h-3l-7-8-4-4 3-2 12 11 10 9 8 8 11 9 47 47 9 11 11 12 23 23 13 10 10 10 8 7 7 8 15 15 7 12-1 5-3 1h-96l-5-2-6-7-8-7-25-25-8-7-13-11-10-9-16-12-15-14-13-13v-2h-2l-5-5-14-15-8-7-14-14-8-7-20-20-7-8-12-12-10-13-8-7v-2h-2l-5-5-9-7-3-1-17-1-68-1h-336l4-2h31l48-1h28l17-1h11l24-2z" fill="#6DCDEF"/>
<path transform="translate(81,418)" d="m0 0h19l2 1 34 1h60l7-1h82 4l2 1h180l8-2 1 3h87l10 3 8 5 12 11 7 6 7 8 14 15 7 8 45 45-4 2v-2l-4-1-4-4v-2l-4-2-6-4-7-8-5-4-5-6-7-6-5-6-9-9v-3l-4-2-5-5-9-10-3-3-7-5-10-5-3-3-4-3-11-1-16-2-42-1-25-1-15-2v-2l-62 1-16 1h-38l-1 1-47 1h-15l-22-1h-27l-39 1-60 2-21-1-9-1h-16l-15 3-1 5-4 13v23l-2 11-2 3-1 31v130l2 11v10l3 6 1 22-1 10 1 8-1 3 2 13 3 5v3l4 2 8 7 4 4v3l3 1v2l4 2 1 3h3l5 5v2h2l2 6h2l4 9 2 1-1 2-1 1 3 2v2h3v2l10-1 1-3-2-1 1-1v-33l3-6v-6l1-7-2-43-2-31v-11l2-31 1-47 1-7 1-47v-8l2-5 2 1-1 9-2 77v69l2 62v12l-2 26-1 28-4 8-4 1-10-4-12-11-6-8-15-14-3-3v-2h-2l-5-5-12-13-2-2-1-6v-300l2-8 6-2z" fill="#6FCEEF"/>
<path transform="translate(968,339)" d="m0 0h35l7 1 9 5 7 6 4 4v3l2 1 6 7 3 5 1 7-1 2h2l3 6 1 9 2 7h1v15h-1l-1 18 2 1v130l-2 28-4 16-5 16-4 6-8 7-11 8-9 4-13 2h-22v2h-5v-2l-3 1-17 1-31 1 6 1v1h-55v-2l-4-1h-58l-4 2h-9v-1h-14v1h-95v-1h-38l-4 1v-2l-4 1h-15l-31-1-1 2-72 1-41-1-189-1h-33l-13 1h-14l-1 2h-4v7l-1 3v100l-2 31-1 5 2 12 1 26v7l1 2v17l2 15 1 4 4 2 6 5v2h2v3l5 2 4 5 3 2v3l2 1 4 6-1 1 6 4 2 4 5 6v3l4 2 6 4 5 5 4-1-3-1 6-3 3-10 1-15-2-2 1-17 1-3 1-17h1l1 25v25l-1 14-3 7-2 1-2 5-2 1-6-4-12-11-31-31-7-8-8-9-4-9-2-11-2-21v-95l1-60v-38l5-6 9-2h63l187 1 73 1h23l3-1h156l101-1 61 1 63-1 36-2 11-3 10-5 15-11 4-7 7-21 2-8 1-24v-145l-1-28-5-16-7-14-9-11-13-10-8-3-6-1-31-2z" fill="#87D6F2"/>
<path transform="translate(63,292)" d="m0 0h1l1 11 2 1 2 4 4 4 5 1h44l11 2 9 6 1 3-5 6-4 1h-9l-12-3h-14l-21 1-2 2-1 4h14l16 1h31l2-1 4 1h14l18-3 3-1v-2l14-1 9 3 13 2 2 1 31 2 33 1 8 1 50 2v1l-143 1h-94l-34-2-3-1-1-2v-41z" fill="#6ECEEF"/>
<path transform="translate(140,504)" d="m0 0 2 1-1 9-2 77v69l2 62v12l-2 26-1 28-4 8-4 1-10-4-12-11-6-8-15-14-3-3v-2h-2l-5-5-12-13-2-2-1-6v-199l1-15h2v130l2 11v10l3 6 1 22-1 10 1 8-1 3 2 13 3 5v3l4 2 8 7 4 4v3l3 1v2l4 2 1 3h3l5 5v2h2l2 6h2l4 9 2 1-1 2-1 1 3 2v2h3v2l10-1 1-3-2-1 1-1v-33l3-6v-6l1-7-2-43-2-31v-11l2-31 1-47 1-7 1-47v-8z" fill="#70CFEF"/>
<path transform="translate(193,493)" d="m0 0h295l3 3h44l-2 2 11 2v2l4-1 3 3 5 4 7 8 8 8h2l7 8 8 4 1 3 4 2 7 8 1 2 4 1 2 4h2v2h2l2 4h3v2l5 2 3 3 15 5v-1l17-1 34-1 16-1 7-3 2-6-4-9-8-8-6-4 2-1 13 8 6 7 3 6v8l-5 5-3 1-58 2h-26l-9-2-8-6-12-11-10-10-6-7-10-8-6-5-17-17-2-1v-2l-12-6-7-1-40-1-19-1h-85l-202 1-31 1 3-2 4-1v-2l14-1h12z" fill="#80D4F1"/>
<path transform="translate(968,339)" d="m0 0h35l7 1 9 5 7 6 4 4v3l2 1 6 7 3 5 1 7-1 2h2l3 6 1 9 2 7h1v15h-1l-1 18 2 1v130l-2 28-4 16-5 16-4 6-8 7-11 8-9 4-13 2h-22v2h-5v-2l-3 1-17 1-31 1 6 1v1h-55v-2l-4-1h-58l-4 2h-9v-1h-14v1h-95v-1h-32v-2l-75 1 3-2h156l101-1 61 1 63-1 36-2 11-3 10-5 15-11 4-7 7-21 2-8 1-24v-145l-1-28-5-16-7-14-9-11-13-10-8-3-6-1-31-2z" fill="#A1DFF4"/>
<path transform="translate(478,418)" d="m0 0 2 1v2h87l10 3 8 5 12 11 7 6 7 8 14 15 7 8 45 45-4 2v-2l-4-1-4-4v-2l-4-2-6-4-7-8-5-4-5-6-7-6-5-6-9-9v-3l-4-2-5-5-9-10-3-3-7-5-10-5-3-3-4-3-11-1-16-2-42-1-25-1-15-2v-2l-62 1-16 1h-38l-1 1h-9l1-3h-33v-1l108-1h58z" fill="#7CD2F0"/>
<path transform="translate(85,264)" d="m0 0 13 1 497 1-1 2-24 1-93-1h-394l-1 2-8 1-4 3h-2l-1 5-2 2-1 10h-1v-15l7-6 12-5z" fill="#79D2F0"/>
<path transform="translate(532,496)" d="m0 0 3 1-2 1 11 2v2l4-1 3 3 5 4 7 8 8 8h2l7 8 8 4 1 3 4 2 7 8 1 2 4 1 2 4h2v2h2l2 4h3v2l5 2 3 3 15 5v-1l17-1 34-1 16-1 7-3 2-6-4-9-8-8-6-4 2-1 13 8 6 7 3 6v8l-5 5-3 1-58 2h-26l-9-2-8-6-12-11-10-10-6-7-10-8-6-5-17-17-2-1v-2l-12-6-7-1z" fill="#75D0F0"/>
<path transform="translate(686,336)" d="m0 0 53 1h93l21 1-2 2h-297v-1l28-1h40l26-1h18z" fill="#67CCEF"/>
<path transform="translate(968,339)" d="m0 0h35l7 1 9 5 7 6 4 4v3l2 1 6 7 3 5 1 7-1 2h2l3 6 1 9 2 7h1v15h-1l-1 18 2 1v97l-1 29h-1l-1-96-2-68-5-16-7-14-9-11-13-10-8-3-6-1-31-2z" fill="#73CFF0"/>
<path transform="translate(1057,717)" d="m0 0 1 2 3 1-11 6-4 2-8 1-73 1-59 3 3-2 9-3 11-1h11l43-3h19l7 1h18l8-3 13-3z" fill="#63C5E9"/>
<path transform="translate(1131,460)" d="m0 0h1l2 16 1 31v58l-1 3-1 53-2 12-7 19h-1v-6l4-9 2-17v-33l2-59-1-62z" fill="#87D6F2"/>
<path transform="translate(1047,466)" d="m0 0h1v96h2l-2 32-4 16-5 16-4 6-8 7-11 8-9 4-13 2h-22v2h-5v-2l-3 1-17 1h-59l-19-1v-1h28l63-1 36-2 11-3 10-5 15-11 4-7 7-21 2-8 1-24z" fill="#A9E1F5"/>
<path transform="translate(697,539)" d="m0 0 5 2 10 6 6 7 3 6v8l-5 5-3 1-58 2h-16v-3l17-1 34-1 16-1 7-3 2-6-4-9-8-8-6-4z" fill="#70CFEF"/>
<path transform="translate(589,654)" d="m0 0h62v1l-10 2v-2l-4 1h-15l-31-1-1 2-72 1-41-1v-2z" fill="#67CCEF"/>
<path transform="translate(820,652)" d="m0 0h16l52 2v2h28l6 1v1h-55v-2l-4-1h-58l-4 2h-9v-1l-21-1 1-2z" fill="#76D0F0"/>
<path transform="translate(305,421)" d="m0 0h158v1l-62 1-16 1h-38l-1 1h-9l1-3h-33z" fill="#94DBF3"/>
<path transform="translate(1047,466)" d="m0 0h1v96h2l-2 32-4 16-5 16-3 1 1-5 6-19 2-8 1-24z" fill="#D9F2FA"/>
<path transform="translate(477,266)" d="m0 0h118l-1 2-24 1-93-1z" fill="#9EDEF4"/>
<path transform="translate(1049,402)" d="m0 0h1v15h-1l-1 18 2 1v97l-1 29h-1l-1-96v-55h2z" fill="#67CCEF"/>
<path transform="translate(85,264)" d="m0 0 13 1 70 1v1l-62 1h-23l-1 2-8 1-4 3h-2l-1 5-2 2-1 10h-1v-15l7-6 12-5z" fill="#AAE2F5"/>
<path transform="translate(966,725)" d="m0 0m-10 1h10v2h6v1l-23 2-43 2 3-2 9-3 11-1h11z" fill="#72CFF0"/>
<path transform="translate(287,421)" d="m0 0h18l33 1-1 3-38 1-11-1v-1l-8-1v-1z" fill="#65C9ED"/>
<path transform="translate(1057,717)" d="m0 0 1 2 3 1-11 6-4 2-8 1h-10l1-2-2-2 8-3 13-3z" fill="#6CCDEF"/>
<path transform="translate(295,879)" d="m0 0h1l1 25v25l-2 4-2-4 1-11-2-2 1-17 1-3z" fill="#6ACCEE"/>
<path transform="translate(863,653)" d="m0 0 25 1v2h28l6 1v1h-55v-2l-4-1z" fill="#67CCEF"/>
<path transform="translate(1124,346)" d="m0 0 2 3 5 19v26h-2l-1-21-2-13-3-8z" fill="#A2DFF4"/>
<path transform="translate(295,738)" d="m0 0 3 1-3 12v27l-3-2-1-24 3-12z" fill="#71CFEF"/>
<path transform="translate(1040,380)" d="m0 0h3l3 6 1 9 1 6-1 25h-1l-1-28-5-16z" fill="#90D9F3"/>
<path transform="translate(960,652)" d="m0 0h24v1h-12v2h-5v-2l-3 1-17 1h-13l2-2z" fill="#67CCEF"/>
<path transform="translate(1048,562)" d="m0 0h2l-1 20-1 9-2 1v-21l1-8z" fill="#90D9F3"/>
<path transform="translate(508,496)" d="m0 0h23l-1 3h-15l-8-1z" fill="#64C7EB"/>
<path transform="translate(296,825)" d="m0 0h1v28l-2-2-1-9-2-3 3-8z" fill="#87D6F2"/>
<path transform="translate(1e3 648)" d="m0 0 3 1-1 2-13 2h-10l-6-1v-1l18-1z" fill="#90D9F3"/>
<path transform="translate(140,504)" d="m0 0 2 1-1 9-1 27h-1l-1-28 1-6z" fill="#9DDDF4"/>
<path transform="translate(966,725)" d="m0 0m-10 1h10v2h6v1l-7 1h-11l-1-3z" fill="#74CFEF"/>
<path transform="translate(74,268)" d="m0 0m-2 1h2l-1 3-5 2-1 5-2 2-1 10h-1v-15l7-6z" fill="#7BD2F1"/>
<path transform="translate(904,746)" d="m0 0 4 2 10 9 7 6h-3l-8-5-4-6-5-3z" fill="#75CFEF"/>
<path transform="translate(322,422)" d="m0 0h16l-1 3h-16z" fill="#62C5E9"/>
<path transform="translate(925,764)" d="m0 0 8 6v3 3l-10-10z" fill="#74CFEF"/>
<path transform="translate(1124,346)" d="m0 0 2 3 4 15-3-1-3-10-1-5z" fill="#8AD7F2"/>
<path transform="translate(498,494)" d="m0 0h8l1 3h-17l1-2z" fill="#5FC0E4"/>
<path transform="translate(680,525)" d="m0 0 8 6 9 7h-3l-6-3-4-3-3-2v-2z" fill="#79D1F0"/>
<path transform="translate(1041,610)" d="m0 0h1v8l-3 8-3 1 1-5z" fill="#96DBF3"/>
<path transform="translate(960,652)" d="m0 0h24v1h-12v2h-5v-2l-6 1z" fill="#73D0F0"/>
<path transform="translate(667,516)" d="m0 0 5 1 5 6-4 1v-2l-4-1z" fill="#67C7EA"/>
<path transform="translate(1037,626)" d="m0 0 1 2-5 6-6 5-2-1 5-5 5-6z" fill="#74D0F0"/>
<path transform="translate(294,939)" d="m0 0 1 4h-2v3l-9 1 1-2 6-3 3-1z" fill="#60C1E5"/>
<path transform="translate(1e3 648)" d="m0 0 3 1-1 2-3 1h-7l-1-2z" fill="#93DAF3"/>
<path transform="translate(1128,636)" d="m0 0 1 3-5 13h-1v-6z" fill="#84D5F1"/>
</svg>
